<svg xmlns="http://www.w3.org/2000/svg" style="display: none;">
    <symbol id="icon-at" viewBox="0 0 24 24">
        <path fill="none" d="M0 0h24v24H0z"/>
        <path d="M20 12a8 8 0 1 0-3.562 6.657l1.11 1.664A9.953 9.953 0 0 1 12 22C6.477 22 2 17.523 2 12S6.477 2 12 2s10 4.477 10 10v1.5a3.5 3.5 0 0 1-6.396 1.966A5 5 0 1 1 15 8H17v5.5a1.5 1.5 0 0 0 3 0V12zm-8-3a3 3 0 1 0 0 6 3 3 0 0 0 0-6z"/>
    </symbol>

    <symbol id="icon-lock-regular" viewBox="0 0 24 24">
        <path fill="none" d="M0 0h24v24H0z"/>
        <path d="M19 10h1a1 1 0 0 1 1 1v10a1 1 0 0 1-1 1H4a1 1 0 0 1-1-1V11a1 1 0 0 1 1-1h1V9a7 7 0 1 1 14 0v1zM5 12v8h14v-8H5zm6 2h2v4h-2v-4zm6-4V9A5 5 0 0 0 7 9v1h10z"/>
    </symbol>

    <symbol id="icon-lock-bold" viewBox="0 0 24 24">
        <path fill="none" d="M0 0h24v24H0z"/>
        <path d="M19 10h1a1 1 0 0 1 1 1v10a1 1 0 0 1-1 1H4a1 1 0 0 1-1-1V11a1 1 0 0 1 1-1h1V9a7 7 0 1 1 14 0v1zm-2 0V9A5 5 0 0 0 7 9v1h10zm-6 4v4h2v-4h-2z"/>
    </symbol>

    <symbol id="icon-error" viewBox="0 0 24 24">
        <path fill="none" d="M0 0h24v24H0z"/>
        <path d="M12 22C6.477 22 2 17.523 2 12S6.477 2 12 2s10 4.477 10 10-4.477 10-10 10zm0-2a8 8 0 1 0 0-16 8 8 0 0 0 0 16zm-1-5h2v2h-2v-2zm0-8h2v6h-2V7z"/>
    </symbol>

    <symbol id="icon-info" viewBox="0 0 24 24">
        <path fill="none" d="M0 0h24v24H0z"/>
        <path d="M12 22C6.477 22 2 17.523 2 12S6.477 2 12 2s10 4.477 10 10-4.477 10-10 10zm0-2a8 8 0 1 0 0-16 8 8 0 0 0 0 16zM11 7h2v2h-2V7zm0 4h2v6h-2v-6z"/>
    </symbol>

    <symbol id="icon-success" viewBox="0 0 24 24">
        <path fill="none" d="M0 0h24v24H0z"/>
        <path d="M10 15.172l9.192-9.193 1.415 1.414L10 18l-6.364-6.364 1.414-1.414z"/>
    </symbol>

    <symbol id="icon-shield" viewBox="0 0 24 24">
        <path fill="none" d="M0 0h24v24H0z"/>
        <path d="M12 1l8.217 1.826a1 1 0 0 1 .783.976v9.987a6 6 0 0 1-2.672 4.992L12 23l-6.328-4.219A6 6 0 0 1 3 13.79V3.802a1 1 0 0 1 .783-.976L12 1zm0 2.049L5 4.604v9.185a4 4 0 0 0 1.781 3.328L12 20.597l5.219-3.48A4 4 0 0 0 19 13.79V4.604L12 3.05zM12 7a2 2 0 0 1 1.001 3.732L13 15h-2v-4.268A2 2 0 0 1 12 7z"/>
    </symbol>
</svg>
